<svg id="Layer_1" data-name="Layer 1" xmlns="http://www.w3.org/2000/svg" viewBox="0 0 550 550"><defs><style>.cls-1{fill:#008de4;}.cls-2{fill:#fff;}</style></defs><rect class="cls-1" width="550" height="550" rx="76"/><path class="cls-2" d="M345.7,89.75H179.48l-13.78,77,150,.18c73.91,0,95.7,26.86,95.08,71.33-.36,22.77-10.23,61.37-14.5,73.91-11.38,33.35-34.77,71.32-122.47,71.24L128,383.34,114.2,460.45H280.07c58.52,0,83.33-6.85,109.75-18.95,58.43-27.12,93.2-84.76,107.17-160C517.8,169.44,492,89.75,345.7,89.75"/><path class="cls-2" d="M107.8,236.41C64.22,236.41,58,264.78,53.9,282c-5.42,22.41-7.2,31.57-7.2,31.57H216.92c43.58,0,49.81-28.37,53.9-45.53,5.42-22.42,7.2-31.58,7.2-31.58Z"/></svg>